<svg xmlns="http://www.w3.org/2000/svg" viewBox="255 65 1100 1150" id="svg2" version="1.1" style="max-height: 500px" width="1209.6" height="1155.2">
  <defs id="defs6" fill="#915eff"/>
  
  <g transform="matrix(1.3333333,0,0,-1.3333333,0,1600)" id="g8">
    <g transform="scale(0.1)" id="g10">
      <!-- Added Circle -->
      <circle cx="6000" cy="7300" r="4200" fill="#faeaff" stroke="black" stroke-width="20"/>
    
      <path id="path14" style="fill:#6C28FF;fill-opacity:1;fill-rule:nonzero;stroke:none" d="m 9683.38,9220.64 c -137.04,368.06 -793.35,302.31 -1107.46,271.93 0,-0.01 0,-65.6 0,-65.6 0,-2.6 -0.57,-4.81 -0.72,-7.32 67.52,-1.93 134.85,-4.77 202.28,-10.53 158.62,-12.55 462.78,-36.26 627.08,-131.73 57.36,-33.33 80.83,-104.3 56.5,-166.04 -0.19,-0.48 -0.38,-0.97 -0.57,-1.46 C 9381.17,8936.7 9202.72,8778.3 9047.13,8652.78 8634.46,8326.28 8174.91,8059.44 7712.47,7808.85 7189.13,7528.98 6653.06,7274.35 6106.3,7042.31 l 77.96,-205.21 1.08,-2.84 0.96,-2.9 72.62,-218.74 c 861.61,371.17 1698.88,804.62 2459.06,1355.26 314.63,239.16 1080.97,809.17 965.4,1252.76"/>
      <path id="path16" style="fill:#6C28FF;fill-opacity:1;fill-rule:nonzero;stroke:none" d="m 4666.95,6493.23 c -536.74,-170.82 -1533.83,-492.11 -2070.91,-368.4 -72.68,25.69 -8.33,150.98 17.69,212.01 5.61,13.16 11.27,26.06 17.62,38.88 94.34,190.61 240.9,362.68 381.48,525.94 145.44,167.38 303.57,323.53 460.3,481.14 l 1.68,67.23 C 3136.9,7218.54 1934.37,6384.47 2418.04,5930.98 c 508.83,-383.85 1979.62,33.8 2565.34,212.16 0,0.01 -134.92,411.99 -134.92,411.99 -60.44,-20.84 -120.91,-41.59 -181.51,-61.9"/>
      <path id="path18" style="fill:#6C28FF;fill-opacity:1;fill-rule:nonzero;stroke:none" d="m 7157.44,6829.61 c -271.93,-135.41 -553.5,-265.09 -841.82,-387.78 l 359.82,-1083.92 482,1471.7"/>
      <path id="path20" style="fill:#6C28FF;fill-opacity:1;fill-rule:nonzero;stroke:none" d="m 6225.83,6257.25 -99.53,299.8 -76.07,229.14 -76.27,200.75 -1091.24,2872.37 H 4588.29 V 7810.2 l 395.48,-1207.57 136.21,-415.89 346.47,-1057.9 h 1133.97 v 0 l -374.59,1128.41"/>
      <path id="path22" style="fill:#6C28FF;fill-opacity:1;fill-rule:nonzero;stroke:none" d="m 6564.69,7440.79 c 208.64,93.21 417.59,196.49 619.71,296.41 v 75.58 l -0.08,-0.23 v 2046.76 h -0.12 L 6237.47,7293.6 c 101.65,44.59 208.94,92.84 325.49,146.41 0.58,0.26 1.15,0.53 1.73,0.78"/>
      <path id="path24" style="fill:#6C28FF;fill-opacity:1;fill-rule:nonzero;stroke:none" d="M 3559.67,5128.84 H 4881.5 v 795.68 C 4524.28,5819.45 4061.67,5695.56 3559.67,5631.45 v -502.61"/>
      <path id="path26" style="fill:#6C28FF;fill-opacity:1;fill-rule:nonzero;stroke:none" d="m 4881.5,6756 v 1056.78 l 0.85,-2.57 v 2049.1 H 3559.67 V 6367.86 c 308.45,66.07 644.03,160.67 1050.36,295.31 98.49,32.99 188.08,63.62 271.47,92.83"/>
      <path id="path28" style="fill:#6C28FF;fill-opacity:1;fill-rule:nonzero;stroke:none" d="M 7184.4,6843.13 V 5128.84 H 8492.8 V 7593.15 C 8224.14,7414.9 7927.06,7237.24 7592.27,7055.21 7459.2,6983.12 7322.93,6912.48 7184.4,6843.13"/>
      <path id="path30" style="fill:#6C28FF;fill-opacity:1;fill-rule:nonzero;stroke:none" d="M 7479.36,9859.31 H 7184.32 V 7812.55 l 0.08,0.23 v -75.58 c 0.49,0.24 1,0.49 1.5,0.73 l 6.05,2.99 c 99.29,49.82 194.56,98.85 287.41,147.44 343.36,179.71 644.76,351.92 913.22,522.15 34.62,22.31 67.71,43.78 100.22,65 v 1383.8 H 7479.36"/>
      
      <g transform="scale(10)" id="g32">
      </g>
    </g>
  </g>
</svg>
