<svg version="1.0" xmlns="http://www.w3.org/2000/svg" width="200" height="160" viewBox="0 0 300 240" preserveAspectRatio="xMidYMid meet">
  <path fill="white" d="M102 80.7v8.8l6.5 5.3 6.5 5.2V84.8l21.3.4c24.8.5 29 1.5 37.6 9.6 7.5 7 10.6 14.5 10.6 25.2s-3.1 18.2-10.6 25.2c-8.3 7.8-13.1 9.1-34.6 9.6l-18.3.4V168h17c9.3 0 19.3-.5 22.2-1.1 14.5-3 27.1-12.9 33.5-26.5 3.8-7.8 3.8-8 3.8-20.4s0-12.6-3.8-20.4c-4.2-8.9-12.1-17.4-20.3-21.8-9.2-5-15.3-5.8-44.6-5.8H102z"/>
  <path fill="#915EFF" d="M102 133v35h13l.2-20.9.3-21 7.2 6 7.2 6 7.3-6 7.3-6 .3 11.1.3 11 5.9-.4c3.3-.2 6.2-.7 6.5-1s.4-11.3.3-24.5l-.3-24.1-13.8 11.5-13.8 11.4-13.9-11.6L102 98z"/>
</svg>
